# xmcd
#
# Track frame offsets: 
#        150
#        9860
#        21910
#        35372
#        47992
#        59165
#        71762
#        82935
#        95552
#        107820
#        120282
#        136802
#        148995
#        161287
#        174370
#        186905
#        201472
#        214020
#        226295
#        238685
#        251572
#        263795
#        277332
#        288937
#        303010
#
# Disc length: 4214 seconds
#
# Revision: 3
# Processed by: cddbd v1.5.1PL2 Copyright (c) Steve Scherf et al.
# Submitted via: ExactAudioCopy v0.95b3
#
DISCID=6a107419
DTITLE=Various Artist - R&B Super Best Collection Disc 2
DYEAR=1993
DGENRE=R&B
TTITLE0=Sam Cooke/Wonderful World
TTITLE1=The Temptations/Get Ready
TTITLE2=The Miracles/You've Really Got a Hold on Me
TTITLE3=Diana Ross and The Supremes/You Can't Hurry Love
TTITLE4=James Brown/I Got You
TTITLE5=Sam Cooke/You Send Me
TTITLE6=The Drifters/Save the Last Dance for Me
TTITLE7=The Miracles/Ooo Baby Baby
TTITLE8=Diana Ross and The Supremes/You Keep Me Hangin' on
TTITLE9=Otis Redding/Satisfaction
TTITLE10=Ray Charles/Georgia on My Mind
TTITLE11=Sam Cooke/Twistin' the Night Away
TTITLE12=Otis Redding/(Sittin' on the) Dock of the Bay
TTITLE13=Diana Ross and The Supremes/Stop! in the Name of Love
TTITLE14=Mary Wells/My Guy
TTITLE15=Sam Cooke/A Change Is Gonna Come
TTITLE16=The Platters/Twilight Time
TTITLE17=Aretha Franklin/(You Make Me Feel Like ) A Natural Woman
TTITLE18=Diana Ross and The Supremes/I Hear a Symphony
TTITLE19=Ray Charles/Unchain My Heart
TTITLE20=The Drifters/Under the Boardwalk
TTITLE21=Ben E. King/Spanish Harlem
TTITLE22=Dinana Ross and The Supremes/Where Did Our Love Go?
TTITLE23=Wilson Pickett/Mustang Sally
TTITLE24=Stevie Wonder/Uptight (Everything's Alright)
EXTD=YEAR: 1993
EXTT0=Sam Cooks
EXTT1=The Temptations
EXTT2=The Miracles
EXTT3=Diana Ross and The Supremes
EXTT4=James Brown
EXTT5=Sam Cooke
EXTT6=The Drifters
EXTT7=The Miracles
EXTT8=Diana Ross and The Supremes
EXTT9=Otis Redding
EXTT10=Ray Charles
EXTT11=Sam Cooke
EXTT12=Otis Redding
EXTT13=Diana Ross and The Supremes
EXTT14=Mary Wells
EXTT15=Sam Cooke
EXTT16=The Platters
EXTT17=Aretha Franklin
EXTT18=Diana Ross and The Supremes
EXTT19=Ray Charles
EXTT20=The Drifters
EXTT21=Ben E. King
EXTT22=Diana Ross and The Supremes
EXTT23=Wilson Pickett
EXTT24=Stevie Wonder
PLAYORDER=
